<svg width="85" height="23" viewBox="0 0 85 23" fill="none" xmlns="http://www.w3.org/2000/svg">
<path d="M10.55 18.3C9.18333 18.3 7.90833 18.075 6.725 17.625C5.55833 17.175 4.54167 16.5417 3.675 15.725C2.825 14.9083 2.15833 13.95 1.675 12.85C1.20833 11.75 0.975 10.55 0.975 9.25C0.975 7.95 1.20833 6.75 1.675 5.65C2.15833 4.55 2.83333 3.59167 3.7 2.775C4.56667 1.95833 5.58333 1.325 6.75 0.874998C7.91667 0.424999 9.18333 0.2 10.55 0.2C11.9333 0.2 13.2 0.424999 14.35 0.874998C15.5167 1.325 16.525 1.95833 17.375 2.775C18.2417 3.575 18.9167 4.525 19.4 5.625C19.8833 6.725 20.125 7.93333 20.125 9.25C20.125 10.55 19.8833 11.7583 19.4 12.875C18.9167 13.975 18.2417 14.9333 17.375 15.75C16.525 16.55 15.5167 17.175 14.35 17.625C13.2 18.075 11.9333 18.3 10.55 18.3ZM16.275 22.025C15.5917 22.025 14.9417 21.95 14.325 21.8C13.725 21.65 13.125 21.4083 12.525 21.075C11.9417 20.7417 11.325 20.2917 10.675 19.725C10.0417 19.1583 9.35 18.4583 8.6 17.625L12.85 16.55C13.3 17.1667 13.7167 17.6583 14.1 18.025C14.4833 18.3917 14.85 18.65 15.2 18.8C15.5667 18.95 15.95 19.025 16.35 19.025C17.4167 19.025 18.3667 18.5917 19.2 17.725L21 19.875C19.8167 21.3083 18.2417 22.025 16.275 22.025ZM10.55 14.85C11.3333 14.85 12.05 14.7167 12.7 14.45C13.3667 14.1833 13.95 13.8 14.45 13.3C14.95 12.8 15.3333 12.2083 15.6 11.525C15.8833 10.825 16.025 10.0667 16.025 9.25C16.025 8.41667 15.8833 7.65833 15.6 6.975C15.3333 6.29167 14.95 5.7 14.45 5.2C13.95 4.7 13.3667 4.31667 12.7 4.05C12.05 3.78333 11.3333 3.65 10.55 3.65C9.76667 3.65 9.04167 3.78333 8.375 4.05C7.70833 4.31667 7.125 4.7 6.625 5.2C6.14167 5.7 5.75833 6.29167 5.475 6.975C5.20833 7.65833 5.075 8.41667 5.075 9.25C5.075 10.0667 5.20833 10.825 5.475 11.525C5.75833 12.2083 6.14167 12.8 6.625 13.3C7.125 13.8 7.70833 14.1833 8.375 14.45C9.04167 14.7167 9.76667 14.85 10.55 14.85ZM23.1688 18V0.499999H30.7438C32.3104 0.499999 33.6604 0.758332 34.7938 1.275C35.9271 1.775 36.8021 2.5 37.4188 3.45C38.0354 4.4 38.3438 5.53333 38.3438 6.85C38.3438 8.15 38.0354 9.275 37.4188 10.225C36.8021 11.175 35.9271 11.9083 34.7938 12.425C33.6604 12.925 32.3104 13.175 30.7438 13.175H25.4188L27.2188 11.35V18H23.1688ZM27.2188 11.8L25.4188 9.875H30.5188C31.7688 9.875 32.7021 9.60833 33.3188 9.075C33.9354 8.54167 34.2438 7.8 34.2438 6.85C34.2438 5.88333 33.9354 5.13333 33.3188 4.6C32.7021 4.06667 31.7688 3.8 30.5188 3.8H25.4188L27.2188 1.875V11.8ZM41.2352 18V0.499999H45.2852V18H41.2352ZM57.8133 18.3C56.4633 18.3 55.2049 18.0833 54.0383 17.65C52.8883 17.2 51.8883 16.5667 51.0383 15.75C50.1883 14.9333 49.5216 13.975 49.0383 12.875C48.5716 11.775 48.3383 10.5667 48.3383 9.25C48.3383 7.93333 48.5716 6.725 49.0383 5.625C49.5216 4.525 50.1883 3.56667 51.0383 2.75C51.9049 1.93333 52.9133 1.30833 54.0633 0.874998C55.2133 0.424999 56.4716 0.2 57.8383 0.2C59.3549 0.2 60.7216 0.466666 61.9383 1C63.1716 1.51667 64.2049 2.28333 65.0383 3.3L62.4383 5.7C61.8383 5.01667 61.1716 4.50833 60.4383 4.175C59.7049 3.825 58.9049 3.65 58.0383 3.65C57.2216 3.65 56.4716 3.78333 55.7883 4.05C55.1049 4.31667 54.5133 4.7 54.0133 5.2C53.5133 5.7 53.1216 6.29167 52.8383 6.975C52.5716 7.65833 52.4383 8.41667 52.4383 9.25C52.4383 10.0833 52.5716 10.8417 52.8383 11.525C53.1216 12.2083 53.5133 12.8 54.0133 13.3C54.5133 13.8 55.1049 14.1833 55.7883 14.45C56.4716 14.7167 57.2216 14.85 58.0383 14.85C58.9049 14.85 59.7049 14.6833 60.4383 14.35C61.1716 14 61.8383 13.475 62.4383 12.775L65.0383 15.175C64.2049 16.1917 63.1716 16.9667 61.9383 17.5C60.7216 18.0333 59.3466 18.3 57.8133 18.3ZM71.3982 14L71.1732 9.325L79.5482 0.499999H84.0482L76.4982 8.625L74.2482 11.025L71.3982 14ZM67.7732 18V0.499999H71.7982V18H67.7732ZM79.7482 18L73.5232 10.375L76.1732 7.5L84.4732 18H79.7482Z" fill="#101010"/>
</svg>
